/* XPM */
static char *_ad8beecb402417b9a820fa5d5255462NMc7whPvllXHZBu6[] = {
/* columns rows colors chars-per-pixel */
"32 32 51 1 ",
"  c black",
". c #4F2E5E",
"X c #512F60",
"o c #533063",
"O c #553165",
"+ c #5A346A",
"@ c #5B346C",
"# c #5C356D",
"$ c #5C3D6A",
"% c #613873",
"& c #633975",
"* c #643976",
"= c #633D74",
"- c #663A78",
"; c #673F78",
": c #683C7B",
"> c #693C7C",
", c #6C3E7F",
"< c #654374",
"1 c #6A4D77",
"2 c #6C427E",
"3 c #72587E",
"4 c #6D3F81",
"5 c #6F4083",
"6 c #704084",
"7 c #744288",
"8 c #77448C",
"9 c #78458E",
"0 c #745084",
"q c #7A4690",
"w c #7C4792",
"e c #7F4996",
"r c #804996",
"t c #834B9B",
"y c #844B9B",
"u c #874D9F",
"i c #835597",
"p c #845597",
"a c #86589A",
"s c #884EA0",
"d c #8D57A3",
"f c #8B50A4",
"g c #8D51A6",
"h c #8F52A8",
"j c #9052A9",
"k c #9254AB",
"l c #9354AD",
"z c #9555AF",
"x c #9756B1",
"c c #9957B3",
"v c #9B59B6",
/* pixels */
"                                ",
"                                ",
"                                ",
"                                ",
"                                ",
"     vvvvtww111vvv&6evvvv&&&    ",
"     vvvvzjw;<1vvvgjlvvxtggg    ",
"     vvvvzjw;<1vvvgjlvvxtggg    ",
"     lxvvzh7>20vvvvvvvvzwgkv    ",
"     &tvw>-wxvv&5wwwq&jvv&&&    ",
"     9we-7wxvf>XoOxi0&:6vzt&    ",
"     9we-7wxvf>XoOxi0&:6vzt&    ",
"     uuu9tsvs9@$=>vdp9->uvg9    ",
"     vvvvvvv>#.3avvvvv4&&vvv    ",
"     vvvvvz&XO&wfvvuevvj&&,w    ",
"     vvvvvz&XO&wfvvuevvj&&,w    ",
"     -@o-9q&%&&cvvvvxezvx&,w    ",
"     &&&&79&&&&vfwwhvvttvvvv    ",
"     vswvvz&XO&w5&wwevvvvvvv    ",
"     vswvvz&XO&w5&wwevvvvvvv    ",
"     w&.wlvv>#.&5wwwevvzw&,w    ",
"     w>+4tfvu7+&5wwugvgy467w    ",
"     e6-*7ecvs-*6wejvcr7*eee    ",
"     e6-*7ecvs-*6wejvcr7*eee    ",
"     vvvw>-wxvvwwwvvcw--wvvv    ",
"     w87vlg7>6uuuuu7>7flv78w    ",
"     864zzj8>4wwww8>*txvv&,w    ",
"     864zzj8>4wwww8>*txvv&,w    ",
"     &tvww9&9wwwww&&-vvvv&,w    ",
"                                ",
"                                ",
"                                "
};
