/* XPM */
static char *_1fa969ce7b6472aa88d8e632974e4adSeoLrw5jGLvi2bK5[] = {
/* columns rows colors chars-per-pixel */
"32 32 4 1 ",
"  c black",
". c #4F7A36",
"X c #589137",
"o c #65AB3F",
/* pixels */
"                                ",
"                                ",
"                                ",
"                                ",
"                                ",
"     ..oooXXooooooooX..XXooo    ",
"     ..oooXXooooooooX..XXooo    ",
"     oooooXX.XXooooooooooooo    ",
"     ooXoooooXXoooXXoooooooo    ",
"     ooXoooooXXoooXXoooooooo    ",
"     ooXoo..ooooooXXo..ooXoo    ",
"     ooooo..ooooooooo..ooXoo    ",
"     ooooo..ooooooooo..ooXoo    ",
"     XXooooooooXX.XXoooooooo    ",
"     XXoooXXoooXX.XXoooooooo    ",
"     XXoooXXoooXX.XXoooooooo    ",
"     oooooXXoooooooooXXooooo    ",
"     ooooooooooXXooooXXoooXX    ",
"     ooooooooooXXooooXXoooXX    ",
"     oo.ooooX..XXoooooooooXX    ",
"     oo.ooooXoooooXXooo..ooo    ",
"     oo.ooooXoooooXXooo..ooo    ",
"     oooXXooooooooXXooo..ooo    ",
"     oooXXooooo..oooooooooXX    ",
"     oooXXooooo..oooooooooXX    ",
"     ..oooooooo..oooX..XXoXX    ",
"                                ",
"                                ",
"                                ",
"                                ",
"                                ",
"                                "
};
