/* XPM */
static char *result[] = {
/* columns rows colors chars-per-pixel */
"32 32 163 2 ",
"   c #4F7A36",
".  c #4C7547",
"X  c #4C7251",
"o  c #4A6B62",
"O  c #517D7B",
"+  c #568E3C",
"@  c #589137",
"#  c #65AB3F",
"$  c #54874B",
"%  c #5D9956",
"&  c #64A942",
"*  c #578A6B",
"=  c #599062",
"-  c #52837A",
";  c #1D4B91",
":  c #27479A",
">  c #187D94",
",  c #1A5BA6",
"<  c #1D58AC",
"1  c #2B4AA3",
"2  c #354DAC",
"3  c #2346B6",
"4  c #275EB5",
"5  c #3F52B5",
"6  c #3C59B6",
"7  c #3B5ABA",
"8  c #0F6EAA",
"9  c #1473A8",
"0  c #0F71B7",
"q  c #127ABC",
"w  c #2162AC",
"e  c #3F6AA8",
"r  c #2E7AAD",
"t  c #2963BE",
"y  c #296BBF",
"u  c #3467BC",
"i  c #2776B8",
"p  c #47648E",
"a  c #4E7485",
"s  c #4F7880",
"d  c #4B718A",
"f  c #496796",
"g  c #4B6D90",
"h  c #47619F",
"j  c #455CA7",
"k  c #4073A3",
"l  c #4676B8",
"z  c #2744DF",
"x  c #1B77C4",
"c  c #1D79D6",
"v  c #1F79D9",
"b  c #296EC6",
"n  c #316EC0",
"m  c #2D70CB",
"M  c #3876C0",
"N  c #3078CA",
"B  c #2A44FC",
"V  c #1B64EA",
"C  c #267FE6",
"Z  c #466DC7",
"A  c #4477C5",
"S  c #4B64FB",
"D  c #1F9BA7",
"F  c #188BB6",
"G  c #1C91B3",
"H  c #268BBA",
"J  c #3984B2",
"K  c #2792B1",
"L  c #4C8288",
"P  c #1589C7",
"I  c #1283C9",
"U  c #0493CF",
"Y  c #0788D4",
"T  c #0797D0",
"R  c #1F95DD",
"E  c #2388C7",
"W  c #2F90C8",
"Q  c #2C99CB",
"!  c #349DC6",
"~  c #319CCB",
"^  c #2485D4",
"/  c #2285DB",
"(  c #2896D0",
")  c #249AD7",
"_  c #3C92D0",
"`  c #13A4D2",
"'  c #18A9D2",
"]  c #1EB4D5",
"[  c #2EA7CE",
"{  c #39A0C2",
"}  c #26BBCC",
"|  c #27ABD3",
" . c #25ACDB",
".. c #26B5D3",
"X. c #25BBD5",
"o. c #1E85E0",
"O. c #099DE2",
"+. c #1897E3",
"@. c #259DF1",
"#. c #14A6E7",
"$. c #18A6F4",
"%. c #11B1F9",
"&. c #38A8E9",
"*. c #24B1ED",
"=. c #32B1F2",
"-. c #4688C7",
";. c #4890CF",
":. c #5397CE",
">. c #459DDF",
",. c #5D96D2",
"<. c #6790CE",
"1. c #628DD5",
"2. c #709BD0",
"3. c #41A9C0",
"4. c #4ABAC3",
"5. c #48AEDE",
"6. c #5BA6D8",
"7. c #4CB8DB",
"8. c #5BBBDA",
"9. c #69BADD",
"0. c #50AFE8",
"q. c #46B5E7",
"w. c #36C4CC",
"e. c #3DC4CB",
"r. c #3FD2CB",
"t. c #27C2D7",
"y. c #29C4D7",
"u. c #2BC9D6",
"i. c #2ACBD9",
"p. c #34CEDC",
"a. c #37CBE3",
"s. c #48CDC4",
"d. c #49D6C6",
"f. c #5AD0C4",
"g. c #43C3DA",
"h. c #52C5DC",
"j. c #70C3DE",
"k. c #43E1DE",
"l. c #5EE1D7",
"z. c #53D7E2",
"x. c #5CD5E3",
"c. c #5BDDE8",
"v. c #5EC0FA",
"b. c #73DEE7",
"n. c #6CC9FC",
"m. c #56F2E3",
"M. c #7DEBE4",
"N. c #77F1F5",
"B. c #88E5EC",
"V. c #9AF2EC",
"C. c #81FAF7",
"Z. c #8AF0FA",
"A. c #86FAFA",
"S. c #8FFBFF",
"D. c #93FDFE",
"F. c #A1EAEF",
"G. c #B2FFFE",
"H. c #BEFEFE",
"J. c #CFFFFE",
"K. c #D6F9FA",
"L. c #EEFFFE",
"P. c #F1FEFF",
"I. c #F8FEFF",
/* pixels */
"    # # # # # @ @ # # # # # # # # # # # # @ @     @ @ # # # # # ",
"    # # # # # @ @ # # # # # # # # # # # # @ @     @ @ # # # # # ",
"# # # # # # # @ @     @ @ @ # # # # # # # # # # # # # # # # # # ",
"# # # # # # # @ @     @ @ @ # # # # # # # # # # # # # # # # # # ",
"# # # # # # # @ @     @ @ @ # # # # # # # # # # # # # # # # # # ",
"# # @ @ @ # # # # f g p p p g g g g p p p a # # # # # # # # # # ",
"# # @ @ @ # # # d s.)  .s.s.Z.Z.e.0.*.v.) @.% & # # # # # # # # ",
"# # @ @ @ # # o { X.i. .d.V.P.S.N.G =.a.=.n.Z X   # # @ @ @ # # ",
"# # @ @ @ # = :.N ' w.r.M.L.J.S.A.k.H =.$.1.M J . # # @ @ @ # # ",
"# # # # # # i p.h.y w.l.G.K.D.D.D.m.c.9 m 7 ..y.e # # @ @ @ # # ",
"# # # # & 6 U t.i.8.P ,.I.J.D.S.C.A.D.i.j *.y.X., a # @ @ @ # # ",
"@ @ # # * Q E q ~ 4.2.M.D.H.J.J.J.J.H.f.9.3.W K K : # # # # # # ",
"@ @ # # * ;.x : t -.<.7.c.B.F.F.F.F.B.4.,.H 1 ; 8 w # # # # # # ",
"@ @ # # * %.>.c < v 7 ` i.i.i.i.i.K.z.y.x Y 3 , U ~ # # # # # # ",
"@ @ # # # h q.< v ^ v y t.t.u.i.x.b.z.5  .B 4 T | O # # # # # # ",
"@ @ # # # # J O.c ( ^ w U ] u.u.a.y.j.-.o.S P g.L # # # # # # # ",
"# # # # & & & N  .c ^ t > ' i.i.y.i.~ 7./ n  .k + # # # # # # # ",
"# # # # # & & $ +.$.^ b 5 U ..X.X.i.A U S T Z @ @ # # # # # # # ",
"# # # # # # # # O 6.T w 2 F ..X.i.[ N z &.! % @ @ # # # # # @ @ ",
"# # # # # # # # & s O.-.H r ` ..i.u C 0 Q * & @ @ # # # # # @ @ ",
"# # # # # # # # & & k #.( y T y.| P V x.- & # @ @ # # # # # @ @ ",
"# #       # # # & @ @ l q.u > y.[ I V j # # # # # # # # # # @ @ ",
"# #       # # # & @ @ X / H 6 } u U r # # # # # # # # # # # @ @ ",
"# #       # # # & @ @ & = _ I D x x X @ @ # # # #     # # # # # ",
"# #       # # # # @ @ # # s 5.R I % @ @ @ # # # #     # # # # # ",
"# # # # # @ @ # # # # # # # f f O # @ @ @ # # # #     # # # # # ",
"# # # # # @ @ # # # # # # # # # # # @ @ @ # # # #     # # # # # ",
"# # # # # @ @ # # # # # # #     # # # # # # # # # # # # # # @ @ ",
"# # # # # @ @ # # # # # # #     # # # # # # # # # # # # # # @ @ ",
"# # # # # @ @ # # # # # # #     # # # # # # # # # # # # # # @ @ ",
"    # # # # # # # # # # # #     # # # # # @ @     @ @ # # # @ @ ",
"    # # # # # # # # # # # #     # # # # # @ @     @ @ # # # @ @ "
};
