/* XPM */
static char *result[] = {
/* columns rows colors chars-per-pixel */
"32 32 14 1 ",
"  c black",
". c #45241F",
"X c #4F7A36",
"o c #371479",
"O c gray46",
"+ c #ED1C24",
"@ c #589137",
"# c #65AB3F",
"$ c #22B14C",
"% c #E8AD4F",
"& c #EBBC6C",
"* c #3F3687",
"= c #004FCE",
"- c white",
/* pixels */
"XX#####@@##         #@@XX@@#####",
"XX#####@@#  ........ @@XX@@#####",
"#######@@X  ........ ###########",
"#######@@X  .&&&&&&. ###########",
"#######@@X  &&&&&&&& ###########",
"##@@@#####  &-=&&=-& ###########",
"##@@@#####  &&&%%&&& ###########",
"##@@@##XX#  &&.&&.&& ##XX##@@@##",
"##@@@##     &&....&&    X##@@@##",
"######  ++++++&&&&++++++ ##@@@##",
"######  +++++++&&+++++++ ##@@@##",
"@@####  ++++++++++++++++ #######",
"@@####  ++++++++++++++++ #######",
"@@####  &&&&++++++++&&&& #######",
"@@####  &&&&++++++++&&&& #######",
"@@####  &&&&++++++++&&&& #######",
"######  &&&&++++++++&&&& #######",
"######  &&&&++++++++&&&& #######",
"######  &&&&++++++++&&&& #####@@",
"######  &&&&oooooo++&&&& #####@@",
"####### &&&&ooooooo+&&&& #####@@",
"##XXX###    oooooooo    ######@@",
"##XXX####@  oooooooo #########@@",
"##XXX####@  oooooooo ####XX#####",
"##XXX####@  ooo$$ooo ####XX#####",
"#####@@###  ooo$$ooo ####XX#####",
"#####@@###  o**$$**o ####XX#####",
"#####@@###  ooo$$ooo #########@@",
"#####@@###  ooo$$ooo #########@@",
"#####@@###  ooo$$ooo #########@@",
"XX########  ooo$$ooo @@XX@@###@@",
"XX########  OOOOOOOO @@XX@@###@@"
};
