/* XPM */
static char *result[] = {
/* columns rows colors chars-per-pixel */
"32 32 82 1 ",
"  c black",
". c #050F0F",
"X c #1B1308",
"o c #061010",
"O c #071212",
"+ c #071313",
"@ c #271C0A",
"# c #172D19",
"$ c #1D371B",
"% c #3C2D11",
"& c #0D2322",
"* c #0D2423",
"= c #112E2D",
"- c #153936",
"; c #173E3B",
": c #45241F",
"> c #4D3B18",
", c #523E18",
"< c #2E4F23",
"1 c #2F5123",
"2 c #355E27",
"3 c #345E2B",
"4 c #264F33",
"5 c #325F32",
"6 c #3D692B",
"7 c #2F603B",
"8 c #674F1F",
"9 c #534621",
"0 c #654F29",
"q c #41712D",
"w c #467B30",
"e c #4F7A36",
"r c #7D6027",
"t c #371479",
"y c #194340",
"u c #1D4C48",
"i c #1C4D4A",
"p c #1D4F4B",
"a c #275E4F",
"s c #2B614C",
"d c #296250",
"f c #24625D",
"g c #2B736C",
"h c #2F7A6E",
"j c #2C7770",
"k c gray46",
"l c #ED1C24",
"z c #896C3B",
"x c #4D8132",
"c c #4D8433",
"v c #4D8434",
"b c #538E36",
"n c #589137",
"m c #579639",
"M c #589839",
"N c #63A73D",
"B c #65AB3F",
"V c #22B14C",
"C c #2F817A",
"Z c #32847C",
"A c #B29155",
"S c #E8AD4F",
"D c #DDB166",
"F c #EBBC6C",
"G c #3F3687",
"H c #004FCE",
"J c #348B83",
"K c #338B84",
"L c #348D86",
"P c #369088",
"I c #3D9A91",
"U c #3FAAA1",
"Y c #429A92",
"T c #40AAA0",
"R c #43B5AB",
"E c #4AB7AE",
"W c #63B3AC",
"Q c #6DC5BD",
"! c #7AC2BC",
"~ c #73C7C0",
"^ c #85CEC8",
"/ c white",
/* pixels */
"eeBBBBBnnBB         BnneennBBBBB",
"eeBBBBBnnB  :::::::: nneennBBBBB",
"BBBBBBBnne  :::::::: BBBBBBBBBBB",
"BBBBBBBnne  :FFFFFF: BBBBBBBBBBB",
"BBBBBBBnne  FFFFFFFF BBBBBBBBBBB",
"BBnnnBBBBB  F/HFFH/F BBBBBBBBBBo",
"BBnnnBBBBB  FFFSSFFF BBBBBBBBB#U",
"BBnnnBBeeB  FF:FF:FF BBeeBBnn<h^",
"BBnnnBB     FF::::FF    eBBn6aW~",
"BBBBBB  llllllFFFFllllll BBx4Y!K",
"BBBBBB  lllllllFFlllllll BB1jQEo",
"nnBBBB  lllllllllllllloo BwfIT*B",
"nnBBBB  lllllllllllllloR.byZP-MB",
"nnBBBB  FFFFllllllllFFFoU=JgicBB",
"nnBBBB  FFFFllllllllFFFoUOufqBBB",
"nnBBBB  FFFFllllllllFFFD&L+3NBBB",
"BBBBBB  FFFFllllllllFFF09pCsvBBB",
"BBBBBB  FFFFllllllllFFz,>5ff7MBB",
"BBBBBB  FFFFllllllllAA%8Xm$d;cnn",
"BBBBBB  FFFFttttttlloor@ BB2ocnn",
"BBBBBBB FFFFtttttttloRoF BBBBBnn",
"BBeeeBBB    ttttttttooo BBBBBBnn",
"BBeeeBBBBn  tttttttt BBBBBBBBBnn",
"BBeeeBBBBn  tttttttt BBBBeeBBBBB",
"BBeeeBBBBn  tttVVttt BBBBeeBBBBB",
"BBBBBnnBBB  tttVVttt BBBBeeBBBBB",
"BBBBBnnBBB  tGGVVGGt BBBBeeBBBBB",
"BBBBBnnBBB  tttVVttt BBBBBBBBBnn",
"BBBBBnnBBB  tttVVttt BBBBBBBBBnn",
"BBBBBnnBBB  tttVVttt BBBBBBBBBnn",
"eeBBBBBBBB  tttVVttt nneennBBBnn",
"eeBBBBBBBB  kkkkkkkk nneennBBBnn"
};
