/* XPM */
static char *result[] = {
/* columns rows colors chars-per-pixel */
"32 32 89 1 ",
"  c black",
". c #050F0F",
"X c #1B1308",
"o c #061010",
"O c #071212",
"+ c #071313",
"@ c #271C0A",
"# c #172D19",
"$ c #1D371B",
"% c #3C2D11",
"& c #0D2322",
"* c #0D2423",
"= c #112E2D",
"- c #153936",
"; c #173E3B",
": c #45241F",
"> c #4D3B18",
", c #523E18",
"< c #2E4F23",
"1 c #2F5123",
"2 c #355E27",
"3 c #345E2B",
"4 c #264F33",
"5 c #325F32",
"6 c #3D692B",
"7 c #2F603B",
"8 c #674F1F",
"9 c #534621",
"0 c #654F29",
"q c #41712D",
"w c #467B30",
"e c #4F7A36",
"r c #7D6027",
"t c #371479",
"y c #194340",
"u c #1D4C48",
"i c #1C4D4A",
"p c #1D4F4B",
"a c #275E4F",
"s c #2B614C",
"d c #296250",
"f c #24625D",
"g c #2B736C",
"h c #2F7A6E",
"j c #2C7770",
"k c gray46",
"l c #896C3B",
"z c #4D8132",
"x c #4D8433",
"c c #4D8434",
"v c #538E36",
"b c #589137",
"n c #579639",
"m c #589839",
"M c #63A73D",
"N c #65AB3F",
"B c #22B14C",
"V c #2F817A",
"C c #32847C",
"Z c #B29155",
"A c #E8AD4F",
"S c #DDB166",
"D c #EBBC6C",
"F c #3F3687",
"G c #2F3699",
"H c #004FCE",
"J c #009699",
"K c #348B83",
"L c #338B84",
"P c #348D86",
"I c #369088",
"U c #3D9A91",
"Y c #00B7BD",
"T c #3FAAA1",
"R c #429A92",
"E c #40AAA0",
"W c #43B5AB",
"Q c #4AB7AE",
"! c #63B3AC",
"~ c #6DC5BD",
"^ c #7AC2BC",
"/ c #01DBE6",
"( c #73C7C0",
") c #6EFFE4",
"_ c #85CEC8",
"` c #85FFE7",
"' c #9EFFEC",
"] c #CCFFF9",
"[ c white",
/* pixels */
"eeNNNNNbbNN         NbbeebbNNNNN",
"eeNNNNNbbN  :::::::: bbeebbNNNNN",
"NNNNNNNbbe  :::::::: NNNNNNNNNNN",
"NNNNNNNbbe  :DDDDDD: NNNNNNNNNNN",
"NNNNNNNbbe  DDDDDDDD NNNNNNNNNNN",
"NNbbbNNNNN  D[HDDH[D NNNNNNNNNNo",
"NNbbbNNNNN  DDDAADDD NNNNNNNNN#T",
"NNbbbNNeeN  DD:DD:DD NNeeNNbb<h_",
"NNbbbNN     DD::::DD    eNNb6a!(",
"NNNNNN  YY//YYDDDDYY//YY NNz4R^L",
"NNNNNN  /']/Y'YDDY'Y/]'/ NN1j~Qo",
"bbNNNN  /)'Y/']YY]'/Y')/ NwfUE*N",
"bbNNNN  Y``Y/'']]''/Y``Y.vyCI-mN",
"bbNNNN  Y///Y'````'Y///YT=KgixNN",
"bbNNNN  DDDD/''''''/DDDoTOufqNNN",
"bbNNNN  DDDD/'````'/DDDS&P+3MNNN",
"NNNNNN  DDDDY``''``YDDD09pVscNNN",
"NNNNNN  DDDD/)````)/DDl,>5ff7mNN",
"NNNNNN  DDDDJY)``)YJZZ%8Xn$d;xbb",
"NNNNNN  DDDDttYYYYGGoor@ NN2oxbb",
"NNNNNNN DDDDtttttttGoWoD NNNNNbb",
"NNeeeNNN    ttttttttooo NNNNNNbb",
"NNeeeNNNNb  tttttttt NNNNNNNNNbb",
"NNeeeNNNNb  tttttttt NNNNeeNNNNN",
"NNeeeNNNNb  tttBBttt NNNNeeNNNNN",
"NNNNNbbNNN  tttBBttt NNNNeeNNNNN",
"NNNNNbbNNN  tFFBBFFt NNNNeeNNNNN",
"NNNNNbbNNN  tttBBttt NNNNNNNNNbb",
"NNNNNbbNNN  tttBBttt NNNNNNNNNbb",
"NNNNNbbNNN  tttBBttt NNNNNNNNNbb",
"eeNNNNNNNN  tttBBttt bbeebbNNNbb",
"eeNNNNNNNN  kkkkkkkk bbeebbNNNbb"
};
