/* XPM */
static char *result[] = {
/* columns rows colors chars-per-pixel */
"32 32 21 1 ",
"  c #0D171F",
". c #750D10",
"X c #524C4B",
"o c #960917",
"O c #B30E1C",
"+ c #ED1C24",
"@ c #B34428",
"# c #857E7D",
"$ c #29A11B",
"% c #3D8A3F",
"& c #22B14C",
"* c #4CAF50",
"= c #C78C58",
"- c #E0AB72",
"; c #8BC34A",
": c #B6E34D",
"> c #2C488F",
", c #3973AD",
"< c #53ACCC",
"1 c #74CEDA",
"2 c white",
/* pixels */
"%%%%****%%%%;;;;%%%%****%%%%****",
"%%%%****%%%%;;;;%%%%****%%%%****",
"%%%%****%%%%;;;;%%%%****%%%%****",
"%%%      %%%;;;;%%%%****%%%%****",
"*  OOOOO@  *%%%%****%%%%****;;;;",
" O@OOOOOOOO    %****%%%%****;;;;",
"OOOOO@OOO  OOOO  ***%%%%****;;;;",
" O@OOO   OOOOOOOO  *%%%%****;;;;",
"% OOO OOOOO....OOOO ;;;;%%%%****",
"%% O OOO...    ...O ;;;;%%%%****",
"%%  OOO.   ====   .O ;;;$%%%****",
"%% OOO. XX====XX= .O ;::$%%%****",
"* OOO. X =----, X .O %$$$$**%%%%",
" OOO. == -----, - . %$$$$*2*%%%%",
" O.. ==----###,,- . %$$$$22*%%%%",
" O.. =----##X##,- . %$$2222*%%%%",
"% O. ---X##X#X##X  %*$222+22;;;;",
"%%   ----XX###XX- %%**22++2%;;;;",
"%%%% -----#####,- %%**22+22%;;;;",
"%%%       X###X    %**2++2&%;;;;",
"*** %%1<< XX#XX <1 *;;2++2&*%%%%",
"****    ,, XXX ,* **;222$***%%%%",
"**** OOO  > X >     222$****%%%%",
"**** O@OOO     OO o222$$****%%%%",
"%%%% OOOOOO . @OO 22o $$%%%%****",
"%%%% @OO@O@ . @OO22%  $$%%%%****",
"%%% OOOOO@ .O. @22 %* $$%%%%****",
"%%% OO@OO@ .O. 22O %**$$%%%%****",
"*** @OOOO .OOO.22O *%%$$****;;;;",
"** ...@.@ .OOO. @.. %%$$****;;;;",
"**                  %%$$****;;;;",
"****;;;;****%%%%****%%%%****;;;;"
};
