/* XPM */
static char *result[] = {
/* columns rows colors chars-per-pixel */
"32 32 19 1 ",
"  c #0D171F",
". c #750D10",
"X c #524C4B",
"o c #960917",
"O c #B30E1C",
"+ c #ED1C24",
"@ c #B34428",
"# c #857E7D",
"$ c #3D8A3F",
"% c #22B14C",
"& c #4CAF50",
"* c #C78C58",
"= c #E0AB72",
"- c #8BC34A",
"; c #2C488F",
": c #3973AD",
"> c #53ACCC",
", c #74CEDA",
"< c white",
/* pixels */
"$$$$&&&&$$$$----$$$$&&&&$$$$&&&&",
"$$$$&&&&$$$$----$$$$&&&&$$$$&&&&",
"$$$$&&&&$$$$----$$$$&&&&$$$$&&&&",
"$$$$&&&&$$$$----$$$$&&&&$$$$&&&&",
"&&&      &&&$$$$&&&&$$$$&&&&----",
"&  OOOOO@  &$$$$&&&&$$$$&&&&----",
" O@OOOOOOOO    $&&&&$$$$&&&&----",
"OOOOO@OOO  OOOO  &&&$$$$&&&&----",
" O@OOO   OOOOOOOO  $----$$$$&&&&",
"$ OOO OOOOO....OOOO ----$$$$&&&&",
"$$ O OOO...    ...O ----$$$$&&&&",
"$$  OOO.   ****   .O ---<$$$&&&&",
"&& OOO. XX****XX* .O $<<<&&&$$$$",
"& OOO. X *====: X .O $<+<<&&$$$$",
" OOO. ** =====: = . $<<+<&&&$$$$",
" O.. **====###::= . $<++<&&&$$$$",
" O.. *====##X##:= . &<+<<$$$----",
"$ O. ===X##X#X##X  $&<+<$$$$----",
"$$   ====XX###XX= $$&&<<$$$$----",
"$$$$ =====#####:= $$&&<<$$$$----",
"&&&       X###X    &--<<<&&&$$$$",
"&&& $$,>> XX#XX >, &---<<&&&$$$$",
"&&&&    :: XXX :& &&--<<<&&&$$$$",
"&&&& OOO  ; X ;       <<&&&&$$$$",
"$$$$ O@OOO     OO ooo=<<$$$$&&&&",
"$$$$ OOOOOO . @OO   o <<$$$$&&&&",
"$$$$ @OO@O@ . @OO $$  <<$$$$&&&&",
"$$$ OOOOO@ .O. @O@ $& <<$$$$&&&&",
"&&& OO@OO@ .O. @OO &$$<<%&&&----",
"&&& @OOOO .OOO. @O &$$<<&&&&----",
"&& ...@.@ .OOO. @.. $$$<&&&&----",
"&&                  $$$<&&&&----"
};
