/* XPM */
static char *result[] = {
/* columns rows colors chars-per-pixel */
"32 32 63 1 ",
"  c #0D171F",
". c #750D10",
"X c #76743C",
"o c #524C4B",
"O c #960917",
"+ c #B30E1C",
"@ c #F53E2C",
"# c #B34428",
"$ c #9D6D27",
"% c #C75A35",
"& c #D45632",
"* c #EF4B2F",
"= c #EE4C2E",
"- c #F7492F",
"; c #FA4F29",
": c #FA4E2A",
"> c #F84A2E",
", c #FE5523",
"< c #FE5622",
"1 c #FF5722",
"2 c #FB5127",
"3 c #FC5127",
"4 c #F8522A",
"5 c #F9542C",
"6 c #E84736",
"7 c #E64833",
"8 c #E94937",
"9 c #F44434",
"0 c #FF6023",
"q c #FF7627",
"w c #857E7D",
"e c #F44E42",
"r c #F97460",
"t c #3C981D",
"y c #29A11B",
"u c #3D8A3F",
"i c #4E843E",
"p c #40883E",
"a c #52823E",
"s c #658523",
"d c #688423",
"f c #70984B",
"g c #4CAF50",
"h c #FF8529",
"j c #FFAB30",
"k c #FFB331",
"l c #FFBC33",
"z c #FFEB3B",
"x c #8A8747",
"c c #808D48",
"v c #B29343",
"b c #A0AB45",
"n c #C78C58",
"m c #E0AB72",
"M c #8BC34A",
"N c #2C488F",
"B c #3973AD",
"V c #53ACCC",
"C c #74CEDA",
"Z c #FBB9B5",
"A c #ECED82",
"S c #E6EE9C",
"D c white",
/* pixels */
"uuuugggguuuuMMMMuuuugggguuuugggg",
"uuuugggguuuuMMMMuuuugggguuuugggg",
"uuuugggguuuuMMMMuuuugggguuuugggg",
"uuu      uuuMMMMuuuugggguuuugggg",
"g  +++++#  guuuugggguuuuggggMMMM",
" +#++++++++    ugggguuuuggggMMMM",
"+++++#+++  ++++  ggguuuuggggMMMM",
" +#+++   ++++++++  guuuuggggMMMM",
"u +++ +++++....++++ MMMMuuuugggg",
"uu + +++...    ...+ MMMMi*augggg",
"uu  +++.   nnnn   .+ MMvd,>u8ggg",
"uu +++. oonnnnoon .+ b5>y6>X,xgg",
"g +++. o nmmmmB o .+ X,$t=>f4>i*",
" +++. nn mmmmmB m . uy71-1Zg6>X,",
" +.. nnmmmmwwwBBm . uyy;11rg6>%<",
" +.. nmmmmwwowwBm . uys3h0:-<1q2",
"u +. mmmowwowowwo  ugd,1hzkh0zl9",
"uu   mmmmoowwwoom uugc,1zzzzzz11",
"uuuu mmmmmwwwwwBm uugc,1zzASSj11",
"uuu       owwwo    ugge1hzzzzz19",
"ggg uuCVV oowoo VC gMMD@>>>>>>&p",
"gggg    BB ooo Bg ggMDDDyggguuuu",
"gggg +++  N o N     DDDygggguuuu",
"gggg +#+++     ++ ODDDyygggguuuu",
"uuuu ++++++ . #++ DDO yyuuuugggg",
"uuuu #++#+# . #++DDu  yyuuuugggg",
"uuu +++++# .+. #DD ug yyuuuugggg",
"uuu ++#++# .+. DD+ uggyyuuuugggg",
"ggg #++++ .+++.DD+ guuyyggggMMMM",
"gg ...#.# .+++. #.. uuyyggggMMMM",
"gg                  uuyyggggMMMM",
"ggggMMMMgggguuuugggguuuuggggMMMM"
};
