/* XPM */
static char *_d6cef4d4c0d4c5087ec541e2149f202JxNGTVtLXiLnxqf7[] = {
/* columns rows colors chars-per-pixel */
"32 32 2 1 ",
"  c #9C5A3C",
". c #D3F9BC",
/* pixels */
".......  .......................",
"....... .......  ...............",
"..  ... ...  ...  ....  ........",
"... .... ...  ... ...  ..... ...",
"... . .  ...  ... ... ......  ..",
"... .  .. .. .... ... ....... ..",
"...   ...    . .. ...  ...... ..",
".....  ... ...   .....  . ..  ..",
".  ...   .  ...  . .....  .  ...",
"..   ....   ....   ......   .. .",
".... ..... ....... ...... .... .",
"....  ..  ....  .  .....      ..",
"....     ..... .. .....  .......",
"...... .......    ..... ... ....",
"....... ......  ....... . .  . .",
".  .... ... ...  .  ...   ..   .",
"..  .... .  ....    .... ..... .",
"...  ..     ......       ..... .",
"....    .  ......  ......  .   .",
"..........  ...   .. .... ..  ..",
"...........   . ...  ...  .. ...",
"............ .  ...  ... ..  ...",
"............ .  ...         ....",
"............        ............",
".............    ...............",
".............    ...............",
".............    ...............",
".............    ...............",
".............    ...............",
".............    ...............",
".............    ...............",
".............    ..............."
};
